<svg version="1.1" id="Layer_1" xmlns="http://www.w3.org/2000/svg" xmlns:xlink="http://www.w3.org/1999/xlink" x="0px" y="0px"
	 viewBox="0 0 180 53" style="enable-background:new 0 0 180 53;" xml:space="preserve">
<style type="text/css">
	.st0{fill:#24AFD3;}
	.st1{fill:#2B3990;}
</style>
<title>9DA628B8-61B5-41DD-8C22-AD5763BFE042</title>
<desc>Created with sketchtool.</desc>
<g id="Page-1">
	<g id="_x30_0-Mindware-Homepage-01" transform="translate(-181.000000, -30.000000)">
		<g id="Group-11" transform="translate(181.000000, 30.000000)">
			<g id="Group" transform="translate(0.000000, 35.000000)">
				<polygon id="Path" class="st0" points="17.1,0.3 10.3,14.2 3.5,0.3 0,0.3 0,17 2.5,17 2.5,3.4 2.6,3.4 9.2,17 11.4,17 18.1,3.1 
					18.1,3.1 18.1,17 20.6,17 20.6,0.3 				"/>
				<rect id="Rectangle" x="29.2" y="0.3" class="st0" width="2.5" height="16.7"/>
				<polygon id="Path_1_" class="st0" points="54.4,0.3 54.4,13.6 54.3,13.6 43.4,0.3 40.5,0.3 40.5,17 43,17 43,3.7 43,3.7 54,17 
					56.9,17 56.9,0.3 				"/>
			</g>
			<g id="Group_1_" transform="translate(66.000000, 0.000000)">
				<path id="Shape" class="st0" d="M8.7,50.2c4.2,0,4.9-3.4,4.9-6.5c0-3-1-6.1-5.4-6.1H2.6v12.6H8.7z M0.1,35.4h8.6
					c5.1,0,7.4,3.3,7.4,8.3c0,4.7-2,8.7-7.3,8.7H0.1V35.4L0.1,35.4z"/>
				<polygon id="Path_2_" class="st1" points="35,38.2 35,38.2 30.2,52.4 27.5,52.4 21.8,35.4 24.6,35.4 28.9,49.2 29,49.2 
					33.6,35.4 36.6,35.4 41.2,49.2 41.2,49.2 45.6,35.4 48.2,35.4 42.5,52.4 39.7,52.4 				"/>
				<path id="Shape_1_" class="st1" d="M61.4,37.7l-3.2,7.5h6.5L61.4,37.7z M65.5,47.4h-8.3l-2.2,5h-2.7l7.7-17h2.9l7.7,17h-2.9
					L65.5,47.4z"/>
				<path id="Shape_2_" class="st1" d="M86.7,43c2.5,0,3.1-1.5,3.1-2.7c0-1.6-1-2.7-3-2.7h-7.1V43H86.7z M77.2,35.4h10.5
					c3.4,0,4.6,2.4,4.6,4.5c0,2-1,3.6-2.9,4.2v0.1c1.5,0.2,2.4,1.6,2.5,3.6c0.1,3.2,0.3,4,0.8,4.6H90c-0.4-0.4-0.4-1.2-0.5-3.3
					c-0.2-3.1-1.2-4-3.3-4h-6.6v7.2h-2.5V35.4z"/>
				<polygon id="Path_3_" class="st1" points="99.9,35.4 113.6,35.4 113.6,37.5 102.4,37.5 102.4,42.5 113.2,42.5 113.2,44.7 
					102.4,44.7 102.4,50.2 113.8,50.2 113.8,52.4 99.9,52.4 				"/>
				<path id="Path_4_" class="st1" d="M13.3,2.2L13.3,2.2c0-0.9-0.6-1.5-1.3-1.5c-0.8,0-1.3,0.6-1.3,1.5v0.1v22.6v0.1
					c0,0.8,0.6,1.5,1.3,1.5c0.8,0,1.3-0.6,1.3-1.5v-0.1V2.2z"/>
				<path id="Path_5_" class="st1" d="M19.4,2.2C19.4,2.1,19.4,2.1,19.4,2.2c0-0.8-0.6-1.5-1.3-1.5s-1.4,0.6-1.4,1.5v0.1v11.4v0.1
					c0,0.8,0.6,1.5,1.3,1.5c0.8,0,1.3-0.6,1.3-1.5v-0.1L19.4,2.2z"/>
				<path id="Path_6_" class="st1" d="M25.4,2.2c0-0.1,0-0.1,0-0.1c0-0.8-0.6-1.5-1.3-1.5c-0.8,0-1.3,0.6-1.3,1.5c0,0.1,0,0.1,0,0.1
					v17.7c0,0.1,0,0.1,0,0.1c0,0.8,0.6,1.5,1.3,1.5c0.8,0,1.3-0.6,1.3-1.5c0-0.1,0-0.1,0-0.1V2.2z"/>
				<path id="Path_7_" class="st0" d="M31.4,14.6L31.4,14.6c0-0.9-0.6-1.5-1.3-1.5s-1.3,0.6-1.3,1.5v0.1v10.1v0.1
					c0,0.8,0.6,1.5,1.3,1.5c0.8,0,1.3-0.6,1.3-1.5v-0.1V14.6z"/>
				<path id="Path_8_" class="st0" d="M37.4,2.2L37.4,2.2c0-0.9-0.6-1.5-1.3-1.5c-0.8,0-1.3,0.6-1.3,1.5v0.1v22.6v0.1
					c0,0.8,0.6,1.5,1.3,1.5c0.8,0,1.3-0.6,1.3-1.5v-0.1V2.2z"/>
			</g>
		</g>
	</g>
</g>
</svg>