
<svg width="180px" height="53px" viewBox="0 0 180 53" version="1.1" xmlns="http://www.w3.org/2000/svg" xmlns:xlink="http://www.w3.org/1999/xlink">
    <!-- Generator: sketchtool 53 (72520) - https://sketchapp.com -->
    <title>9DA628B8-61B5-41DD-8C22-AD5763BFE042</title>
    <desc>Created with sketchtool.</desc>
    <g id="Page-1" stroke="none" stroke-width="1" fill="none" fill-rule="evenodd">
        <g id="00-Mindware-Homepage-01" transform="translate(-181.000000, -30.000000)" fill="#FFFFFF" fill-rule="nonzero">
            <g id="Group-11" transform="translate(181.000000, 30.000000)">
                <g id="Group" transform="translate(0.000000, 35.000000)">
                    <polygon id="Path" points="17.1 0.251851852 10.311236 14.1666667 3.52247191 0.251851852 0 0.251851852 0 17 2.49775281 17 2.49775281 3.4 2.56179775 3.4 9.15842697 17 11.4 17 18.0606742 3.08518519 18.0606742 3.08518519 18.0606742 17 20.6224719 17 20.6224719 0.251851852"></polygon>
                    <rect id="Rectangle" x="29.2044944" y="0.251851852" width="2.49775281" height="16.7481481"></rect>
                    <polygon id="Path" points="54.3741573 0.251851852 54.3741573 13.6 54.3101124 13.6 43.4224719 0.251851852 40.4764045 0.251851852 40.4764045 17 42.9741573 17 42.9741573 3.65185185 43.0382022 3.65185185 53.9898876 17 56.8719101 17 56.8719101 0.251851852"></polygon>
                </g>
                <g id="Group" transform="translate(66.000000, 0.000000)">
                    <path d="M8.71011236,50.1903614 C12.8730337,50.1903614 13.5775281,46.7421687 13.5775281,43.6771084 C13.5775281,40.6759036 12.6168539,37.546988 8.19775281,37.546988 L2.56179775,37.546988 L2.56179775,50.1903614 L8.71011236,50.1903614 Z M0.0640449438,35.3759036 L8.71011236,35.3759036 C13.8337079,35.3759036 16.1393258,38.6963855 16.1393258,43.6771084 C16.1393258,48.4024096 14.0898876,52.4253012 8.83820225,52.4253012 L0.0640449438,52.4253012 L0.0640449438,35.3759036 L0.0640449438,35.3759036 Z" id="Shape"></path>
                    <polygon id="Path" points="34.9685393 38.2493976 34.9685393 38.2493976 30.2292135 52.3614458 27.4752809 52.3614458 21.8393258 35.3759036 24.5932584 35.3759036 28.9483146 49.1686747 29.0123596 49.1686747 33.5595506 35.3759036 36.5696629 35.3759036 41.2449438 49.1686747 41.2449438 49.1686747 45.6 35.3759036 48.2258427 35.3759036 42.4617978 52.3614458 39.7078652 52.3614458"></polygon>
                    <path d="M61.3550562,37.6746988 L58.152809,45.2096386 L64.6213483,45.2096386 L61.3550562,37.6746988 Z M65.5179775,47.3807229 L57.1921348,47.3807229 L55.0146067,52.3614458 L52.3247191,52.3614458 L60.0101124,35.3759036 L62.8921348,35.3759036 L70.5775281,52.3614458 L67.6955056,52.3614458 L65.5179775,47.3807229 Z" id="Shape"></path>
                    <path d="M86.7168539,42.9746988 C89.2146067,42.9746988 89.7910112,41.4421687 89.7910112,40.2927711 C89.7910112,38.6963855 88.8303371,37.546988 86.7808989,37.546988 L79.6719101,37.546988 L79.6719101,42.9746988 L86.7168539,42.9746988 Z M77.1741573,35.3759036 L87.6775281,35.3759036 C91.0719101,35.3759036 92.288764,37.7385542 92.288764,39.9096386 C92.288764,41.953012 91.2640449,43.4855422 89.4067416,44.1240964 L89.4067416,44.1879518 C90.8797753,44.3795181 91.7764045,45.7843373 91.9044944,47.8277108 C92.0325843,51.0204819 92.1606742,51.786747 92.7370787,52.4253012 L90.047191,52.4253012 C89.6629213,51.9783133 89.6629213,51.2120482 89.5348315,49.1686747 C89.3426966,46.1036145 88.3179775,45.2096386 86.2685393,45.2096386 L79.6719101,45.2096386 L79.6719101,52.3614458 L77.1741573,52.3614458 L77.1741573,35.3759036 Z" id="Shape"></path>
                    <polygon id="Path" points="99.9101124 35.3759036 113.551685 35.3759036 113.551685 37.546988 102.407865 37.546988 102.407865 42.4638554 113.231461 42.4638554 113.231461 44.6987952 102.407865 44.6987952 102.407865 50.1903614 113.807865 50.1903614 113.807865 52.3614458 99.9101124 52.3614458"></polygon>
                    <path d="M13.3213483,2.17108434 C13.3213483,2.17108434 13.3213483,2.10722892 13.3213483,2.10722892 C13.3213483,1.27710843 12.6808989,0.638554217 11.9764045,0.638554217 C11.2078652,0.638554217 10.6314607,1.27710843 10.6314607,2.10722892 C10.6314607,2.10722892 10.6314607,2.17108434 10.6314607,2.17108434 L10.6314607,24.7759036 C10.6314607,24.7759036 10.6314607,24.839759 10.6314607,24.839759 C10.6314607,25.6698795 11.2719101,26.3084337 11.9764045,26.3084337 C12.7449438,26.3084337 13.3213483,25.6698795 13.3213483,24.839759 C13.3213483,24.839759 13.3213483,24.7759036 13.3213483,24.7759036 L13.3213483,2.17108434 Z" id="Path"></path>
                    <path d="M19.405618,2.17108434 C19.405618,2.10722892 19.405618,2.10722892 19.405618,2.17108434 C19.405618,1.34096386 18.8292135,0.638554217 18.0606742,0.638554217 C17.2921348,0.638554217 16.6516854,1.27710843 16.6516854,2.10722892 C16.6516854,2.10722892 16.6516854,2.17108434 16.6516854,2.17108434 L16.6516854,13.5373494 C16.6516854,13.5373494 16.6516854,13.6012048 16.6516854,13.6012048 C16.6516854,14.4313253 17.2921348,15.0698795 17.9966292,15.0698795 C18.7651685,15.0698795 19.341573,14.4313253 19.341573,13.6012048 C19.341573,13.6012048 19.341573,13.5373494 19.341573,13.5373494 L19.405618,2.17108434 Z" id="Path"></path>
                    <path d="M25.3617978,2.17108434 C25.3617978,2.10722892 25.3617978,2.10722892 25.3617978,2.04337349 C25.3617978,1.21325301 24.7213483,0.574698795 24.0168539,0.574698795 C23.2483146,0.574698795 22.6719101,1.21325301 22.6719101,2.04337349 C22.6719101,2.10722892 22.6719101,2.10722892 22.6719101,2.10722892 L22.6719101,19.7951807 C22.6719101,19.8590361 22.6719101,19.8590361 22.6719101,19.9228916 C22.6719101,20.753012 23.3123596,21.3915663 24.0168539,21.3915663 C24.7853933,21.3915663 25.3617978,20.753012 25.3617978,19.9228916 C25.3617978,19.8590361 25.3617978,19.8590361 25.3617978,19.7951807 L25.3617978,2.17108434 Z" id="Path"></path>
                    <path d="M31.3820225,14.6228916 C31.3820225,14.6228916 31.3820225,14.6228916 31.3820225,14.6228916 C31.3820225,13.7289157 30.805618,13.0903614 30.0370787,13.0903614 C29.2685393,13.0903614 28.6921348,13.7289157 28.6921348,14.5590361 C28.6921348,14.5590361 28.6921348,14.6228916 28.6921348,14.6228916 L28.6921348,24.7120482 C28.6921348,24.7120482 28.6921348,24.7759036 28.6921348,24.7759036 C28.6921348,25.6060241 29.3325843,26.2445783 30.0370787,26.2445783 C30.805618,26.2445783 31.3820225,25.6060241 31.3820225,24.7759036 C31.3820225,24.7759036 31.3820225,24.7120482 31.3820225,24.7120482 L31.3820225,14.6228916 Z" id="Path"></path>
                    <path d="M37.4022472,2.17108434 C37.4022472,2.17108434 37.4022472,2.10722892 37.4022472,2.10722892 C37.4022472,1.27710843 36.7617978,0.638554217 36.0573034,0.638554217 C35.288764,0.638554217 34.7123596,1.27710843 34.7123596,2.10722892 C34.7123596,2.10722892 34.7123596,2.17108434 34.7123596,2.17108434 L34.7123596,24.7759036 C34.7123596,24.7759036 34.7123596,24.839759 34.7123596,24.839759 C34.7123596,25.6698795 35.352809,26.3084337 36.0573034,26.3084337 C36.8258427,26.3084337 37.4022472,25.6698795 37.4022472,24.839759 C37.4022472,24.839759 37.4022472,24.7759036 37.4022472,24.7759036 L37.4022472,2.17108434 Z" id="Path"></path>
                </g>
            </g>
        </g>
    </g>
</svg>